<svg width="130" height="58" viewBox="0 0 130 58" fill="none" xmlns="http://www.w3.org/2000/svg">
<rect x="1" y="1" width="128" height="55.0899" rx="3" stroke="white" stroke-width="2"/>
<rect x="4.12698" y="7.56613" width="6.19048" height="5.50265" rx="1" fill="white"/>
<rect x="4.12698" y="14.4444" width="6.19048" height="5.50265" rx="1" fill="white"/>
<rect x="4.12698" y="21.3228" width="6.19048" height="5.50265" rx="1" fill="white"/>
<rect x="4.12698" y="28.201" width="24.0741" height="5.50265" rx="1" fill="white"/>
<rect x="4.12698" y="35.0794" width="6.19048" height="5.50265" rx="1" fill="white"/>
<rect x="39.8942" y="7.56613" width="6.19048" height="5.50265" rx="1" fill="white"/>
<rect x="39.8942" y="14.4444" width="6.19048" height="5.50265" rx="1" fill="white"/>
<rect x="39.8942" y="21.3228" width="6.19048" height="5.50265" rx="1" fill="white"/>
<rect x="39.8942" y="28.201" width="6.19048" height="5.50265" rx="1" fill="white"/>
<rect x="39.8942" y="35.0794" width="6.19048" height="5.50265" rx="1" fill="white"/>
<rect x="22.0106" y="7.56613" width="6.19048" height="5.50265" rx="1" fill="white"/>
<rect x="22.0106" y="14.4444" width="6.19048" height="5.50265" rx="1" fill="white"/>
<rect x="22.0106" y="21.3228" width="6.19048" height="5.50265" rx="1" fill="white"/>
<rect x="22.0106" y="28.201" width="6.19048" height="5.50265" rx="1" fill="white"/>
<rect x="22.0106" y="35.0794" width="6.19048" height="5.50265" rx="1" fill="white"/>
<rect x="48.836" y="7.56613" width="6.19048" height="5.50265" rx="1" fill="white"/>
<rect x="48.836" y="14.4444" width="6.19048" height="5.50265" rx="1" fill="white"/>
<rect x="48.836" y="21.3228" width="6.19048" height="5.50265" rx="1" fill="white"/>
<rect x="48.836" y="28.201" width="6.19048" height="5.50265" rx="1" fill="white"/>
<rect x="48.836" y="35.0794" width="6.19048" height="5.50265" rx="1" fill="white"/>
<rect x="57.7778" y="7.56613" width="6.19048" height="5.50265" rx="1" fill="white"/>
<rect x="57.7778" y="14.4444" width="6.19048" height="5.50265" rx="1" fill="white"/>
<rect x="57.7778" y="21.3228" width="6.19048" height="5.50265" rx="1" fill="white"/>
<rect x="57.7778" y="28.201" width="6.19048" height="5.50265" rx="1" fill="white"/>
<rect x="57.7778" y="35.0794" width="6.19048" height="5.50265" rx="1" fill="white"/>
<rect x="13.0688" y="7.56613" width="6.19048" height="5.50265" rx="1" fill="white"/>
<rect x="13.0688" y="14.4444" width="6.19048" height="5.50265" rx="1" fill="white"/>
<rect x="13.0688" y="21.3228" width="6.19048" height="5.50265" rx="1" fill="white"/>
<rect x="13.0688" y="28.201" width="6.19048" height="5.50265" rx="1" fill="white"/>
<rect x="13.0688" y="35.0794" width="6.19048" height="5.50265" rx="1" fill="white"/>
<rect x="66.7196" y="7.56613" width="6.19048" height="5.50265" rx="1" fill="white"/>
<rect x="66.7196" y="14.4444" width="6.19048" height="5.50265" rx="1" fill="white"/>
<rect x="66.7196" y="21.3228" width="6.19048" height="5.50265" rx="1" fill="white"/>
<rect x="66.7196" y="28.201" width="6.19048" height="5.50265" rx="1" fill="white"/>
<rect x="66.7196" y="35.0794" width="6.19048" height="5.50265" rx="1" fill="white"/>
<rect x="75.6614" y="7.56613" width="6.19048" height="5.50265" rx="1" fill="white"/>
<rect x="75.6614" y="14.4444" width="6.19048" height="5.50265" rx="1" fill="white"/>
<rect x="75.6614" y="21.3228" width="6.19048" height="5.50265" rx="1" fill="white"/>
<rect x="75.6614" y="28.201" width="6.19048" height="5.50265" rx="1" fill="white"/>
<rect x="75.6614" y="35.0794" width="6.19048" height="5.50265" rx="1" fill="white"/>
<rect x="102.487" y="7.56613" width="6.19048" height="5.50265" rx="1" fill="white"/>
<rect x="102.487" y="14.4444" width="6.19048" height="5.50265" rx="1" fill="white"/>
<rect x="102.487" y="21.3228" width="6.19048" height="5.50265" rx="1" fill="white"/>
<rect x="102.487" y="28.201" width="11.0053" height="5.50265" rx="1" fill="white"/>
<rect x="102.487" y="35.0794" width="6.19048" height="5.50265" rx="1" fill="white"/>
<rect x="30.9524" y="7.56613" width="6.19048" height="5.50265" rx="1" fill="white"/>
<rect x="30.9524" y="14.4444" width="6.19048" height="5.50265" rx="1" fill="white"/>
<rect x="30.9524" y="21.3228" width="6.19048" height="5.50265" rx="1" fill="white"/>
<rect x="30.9524" y="28.201" width="6.19048" height="5.50265" rx="1" fill="white"/>
<rect x="30.9524" y="35.0794" width="6.19048" height="5.50265" rx="1" fill="white"/>
<rect x="84.6032" y="7.56613" width="6.19048" height="5.50265" rx="1" fill="white"/>
<rect x="84.6032" y="14.4444" width="6.19048" height="5.50265" rx="1" fill="white"/>
<rect x="84.6032" y="21.3228" width="6.19048" height="5.50265" rx="1" fill="white"/>
<rect x="84.6032" y="28.201" width="6.19048" height="5.50265" rx="1" fill="white"/>
<rect x="84.6032" y="35.0794" width="6.19048" height="5.50265" rx="1" fill="white"/>
<rect x="111.429" y="7.56613" width="6.19048" height="5.50265" rx="1" fill="white"/>
<rect x="111.429" y="14.4444" width="6.19048" height="5.50265" rx="1" fill="white"/>
<rect x="111.429" y="21.3228" width="10.3175" height="12.381" rx="1" fill="white"/>
<rect x="111.429" y="28.201" width="6.19048" height="5.50265" rx="1" fill="white"/>
<rect x="111.429" y="35.0794" width="6.19048" height="5.50265" rx="1" fill="white"/>
<rect x="93.545" y="7.56613" width="6.19048" height="5.50265" rx="1" fill="white"/>
<rect x="93.545" y="14.4444" width="6.19048" height="5.50265" rx="1" fill="white"/>
<rect x="93.545" y="21.3228" width="6.19048" height="5.50265" rx="1" fill="white"/>
<rect x="93.545" y="28.201" width="6.19048" height="5.50265" rx="1" fill="white"/>
<rect x="93.545" y="35.0794" width="6.19048" height="5.50265" rx="1" fill="white"/>
<rect x="120.37" y="7.56613" width="6.19048" height="5.50265" rx="1" fill="white"/>
<rect x="120.37" y="14.4444" width="6.19048" height="5.50265" rx="1" fill="white"/>
<rect x="120.37" y="21.3228" width="6.19048" height="8.9418" rx="1" fill="white"/>
<rect x="120.37" y="28.201" width="6.19048" height="5.50265" rx="1" fill="white"/>
<rect x="120.37" y="35.0794" width="6.19048" height="5.50265" rx="1" fill="white"/>
<rect x="30.9524" y="45.3968" width="68.7831" height="6.19048" rx="2" fill="white"/>
</svg>
